{"title":"Rob.The.Mob.2014.480p.BRRip.XviD.AC3-N3kr4","uid":10305320,"size":2087227481,"categoryP":"video","categoryS":"movies","magnet":"?xt=urn:btih:d397d810eb2fefea263984aee9a8409de85cb546&amp;dn=Rob.The.Mob.2014.480p.BRRip.XviD.AC3-N3kr4&amp;tr=udp%3A%2F%2Ftracker.openbittorrent.com%3A80&amp;tr=udp%3A%2F%2Fopen.demonii.com%3A1337&amp;tr=udp%3A%2F%2Ftracker.coppersurfer.tk%3A6969&amp;tr=udp%3A%2F%2Fexodus.desync.com%3A6969","seeders":1,"leechers":0,"uploader":"Falcon.G13","files":2,"time":1402118427,"description":"Rob the Mob (2014)\n 104 min - Crime | Drama - 31 July 2014 (Netherlands)\n6.7 Your rating: -/10 Ratings: 6.7/10 from 320 users Metascore: 63/100 \n\nA Queens couple who specialize in robbing mafia social \nclubs stumble upon a score bigger than they could ever imagine,\n becoming targets of both the mob and the FBI in the process.\n &lt;a href=&quot;\nhttp://i.imgur.com/nxNWP2T.jpg&quot; rel=&quot;nofollow&quot; target=&quot;_NEW&quot;&gt;\nhttp://i.imgur.com/nxNWP2T.jpg&lt;/a&gt; &lt;a href=&quot;\nhttp://i.imgur.com/kHdnD41.jpg&quot; rel=&quot;nofollow&quot; target=&quot;_NEW&quot;&gt;\nhttp://i.imgur.com/kHdnD41.jpg&lt;/a&gt; &lt;a href=&quot;\nhttp://i.imgur.com/60WevWI.jpg&quot; rel=&quot;nofollow&quot; target=&quot;_NEW&quot;&gt;\nhttp://i.imgur.com/60WevWI.jpg&lt;/a&gt; &lt;a href=&quot;\nhttp://i.imgur.com/X3FOSEm.jpg&quot; rel=&quot;nofollow&quot; target=&quot;_NEW&quot;&gt;\nhttp://i.imgur.com/X3FOSEm.jpg&lt;/a&gt; &lt;a href=&quot;\nhttp://i.imgur.com/2lMK3xT.jpg&quot; rel=&quot;nofollow&quot; target=&quot;_NEW&quot;&gt;\nhttp://i.imgur.com/2lMK3xT.jpg&lt;/a&gt; &lt;a href=&quot;\nhttp://i.imgur.com/2SpD0ej.jpg&quot; rel=&quot;nofollow&quot; target=&quot;_NEW&quot;&gt;\nhttp://i.imgur.com/2SpD0ej.jpg&lt;/a&gt;\n\nGeneral\nComplete name : Rob.The.Mob.2014.480p.BRRip.XviD.AC3-N3kr4.avi\nFormat : AVI\nFormat/Info : Audio Video Interleave\nFormat profile : OpenDML\nFile size : 1.94 GiB\nDuration : 1h 44mn\nOverall bit rate : 2 670 Kbps\nWriting application : Lavf55.7.100\n\nVideo\nID : 0\nFormat : MPEG-4 Visual\nFormat profile : Advanced Simple@L1\nFormat settings, BVOP : No\nFormat settings, QPel : No\nFormat settings, GMC : No warppoints\nFormat settings, Matrix : Default (H.263)\nCodec ID : XVID\nCodec ID/Hint : XviD\nDuration : 1h 44mn\nBit rate : 2 020 Kbps\nWidth : 720 pixels\nHeight : 400 pixels\nDisplay aspect ratio : 16:9\nFrame rate : 23.976 fps\nColor space : YUV\nChroma subsampling : 4:2:0\nBit depth : 8 bits\nScan type : Progressive\nCompression mode : Lossy\nBits/(Pixel*Frame) : 0.293\nStream size : 1.47 GiB (76%)\nWriting library : Lavc55.12.100\n\nAudio\nID : 1\nFormat : AC-3\nFormat/Info : Audio Coding 3\nMode extension : CM (complete main)\nFormat settings, Endianness : Big\nCodec ID : 2000\nDuration : 1h 44mn\nBit rate mode : Constant\nBit rate : 640 Kbps\nChannel(s) : 6 channels\nChannel positions : Front: L C R, Side: L R, LFE\nSampling rate : 48.0 KHz\nBit depth : 16 bits\nCompression mode : Lossy\nStream size : 477 MiB (24%)\nAlignment : Aligned on interleaves\nInterleave, duration : 32 ms (0.77 video frame)\nInterleave, preload duration : 32 ms","torrent":{"xt":"urn:btih:d397d810eb2fefea263984aee9a8409de85cb546","amp;dn":"Rob.The.Mob.2014.480p.BRRip.XviD.AC3-N3kr4","amp;tr":["udp%3A%2F%2Ftracker.openbittorrent.com%3A80","udp%3A%2F%2Fopen.demonii.com%3A1337","udp%3A%2F%2Ftracker.coppersurfer.tk%3A6969","udp%3A%2F%2Fexodus.desync.com%3A6969"],"infoHash":"d397d810eb2fefea263984aee9a8409de85cb546","infoHashBuffer":{"type":"Buffer","data":[211,151,216,16,235,47,239,234,38,57,132,174,233,168,64,157,232,92,181,70]},"announce":[],"urlList":[]}}